<?xml version="1.0" encoding="utf-8"?>
<!-- Generator: Adobe Illustrator 19.0.0, SVG Export Plug-In . SVG Version: 6.00 Build 0)  -->
<svg version="1.1" id="Layer_1" xmlns="http://www.w3.org/2000/svg" xmlns:xlink="http://www.w3.org/1999/xlink" x="0px" y="0px"
	 viewBox="0 0 96 96" style="enable-background:new 0 0 96 96;" xml:space="preserve">
<style type="text/css">
	.st0{fill:#333333;}
</style>
<g id="XMLID_1_">
	<path id="XMLID_3_" class="st0" d="M77.3,44.7c1.6,0,2.9-1.1,3.2-2.7c0.3-1.6-0.6-3.1-2.1-3.6l-58.5-20c-1.3-0.4-2.7,0-3.6,1
		c-0.9,1.1-1,2.5-0.3,3.7l12,20c0.6,1,1.6,1.6,2.8,1.6H77.3z"/>
	<path id="XMLID_4_" class="st0" d="M30.8,51.2c-1.1,0-2.2,0.6-2.8,1.6l-12,20c-0.7,1.2-0.6,2.7,0.3,3.7c0.9,1.1,2.3,1.5,3.6,1
		l58.5-20c1.5-0.5,2.4-2,2.1-3.6c-0.3-1.6-1.6-2.7-3.2-2.7H30.8z"/>
</g>
</svg>
